<?xml version="1.0" encoding="UTF-8"?>
<svg width="506px" height="515px" viewBox="0 0 506 515" version="1.1" xmlns="http://www.w3.org/2000/svg" xmlns:xlink="http://www.w3.org/1999/xlink">
    <!-- Generator: Sketch 42 (36781) - http://www.bohemiancoding.com/sketch -->
    <title>logo</title>
    <desc>Created with Sketch.</desc>
    <defs>
        <linearGradient x1="48.7950265%" y1="0%" x2="50%" y2="100%" id="linearGradient-1">
            <stop stop-color="#F98B88" offset="0%"></stop>
            <stop stop-color="#EF5350" offset="100%"></stop>
        </linearGradient>
        <path d="M247.55763,0.939965074 C248.338885,0.156592776 248.989205,0.414086297 249.029771,1.52972185 C249.029771,1.52972185 249.034061,88.0608275 330.43108,168.779636 C411.828098,249.498444 497.892772,249.933219 497.892772,249.933219 C498.996314,249.970101 499.259959,250.632073 498.477708,251.415714 L251.385421,498.947058 C250.604931,499.728936 249.341555,499.728175 248.567359,498.949149 L1.57267438,250.413623 C0.796791919,249.632901 0.795953776,248.370159 1.58240357,247.581579 L247.55763,0.939965074 Z" id="path-2"></path>
        <filter x="-50%" y="-50%" width="200%" height="200%" filterUnits="objectBoundingBox" id="filter-3">
            <feOffset dx="2" dy="2" in="SourceAlpha" result="shadowOffsetOuter1"></feOffset>
            <feGaussianBlur stdDeviation="2" in="shadowOffsetOuter1" result="shadowBlurOuter1"></feGaussianBlur>
            <feColorMatrix values="0 0 0 0 0   0 0 0 0 0   0 0 0 0 0  0 0 0 0.04 0" type="matrix" in="shadowBlurOuter1"></feColorMatrix>
        </filter>
        <path d="M27.6519922,153.281497 L4.43958955,144.382909 C3.40465856,143.986164 3.20528044,143.044647 3.99751883,142.281221 C3.99751883,142.281221 8.86346793,137.897968 11.3921959,133.17613 C3.92443998,132.253227 0,130.995418 0,129.609114 C0,128.156227 4.31047292,126.844473 12.492699,125.911459 C10.7865196,120.400356 4.01927562,114.498355 4.01927562,114.498355 C3.22408585,113.740283 3.08014977,112.417483 3.71803167,111.531537 C3.71803167,111.531537 7.94766706,101.811796 38.2540392,100.594466 L44.3686912,7.50127153 C44.441211,6.39718488 44.5671289,6.38788846 44.6515102,7.50127153 L51.708767,100.619393 C81.4511014,101.936577 85.4677966,111.505767 85.4677966,111.505767 C86.1592179,112.381305 86.0085535,113.784242 85.2516899,114.584279 C85.2516899,114.584279 79.3599911,120.36859 77.8285225,125.841505 C85.95598,126.778313 90,128.119538 90,129.609114 C90,131.03677 86.2852057,132.328151 78.8209139,133.257818 C81.0548871,137.917392 85.2714317,142.193369 85.2714317,142.193369 C86.0072893,143.009426 85.7908763,143.99684 84.7654944,144.408003 L62.3286154,153.404861 L57.4854311,163.73421 L57.5238326,163.743 C57.5238326,163.743 55.5238326,209.58171 63.014906,266.675687 C70.5059795,323.769664 82.1884092,381.072727 82.1884092,381.072727 L50.9640536,411.785255 C50.1776853,412.558733 48.9217029,412.545001 48.1483499,411.743821 L8.06368939,370.216843 C8.06368939,370.216843 20.238077,312.127292 27.1237953,266.675687 C34.0095135,221.224081 33.1920723,163.743 33.1920723,163.743 L33.1993775,163.741378 L27.6519922,153.281497 Z" id="path-4"></path>
        <filter x="-50%" y="-50%" width="200%" height="200%" filterUnits="objectBoundingBox" id="filter-5">
            <feOffset dx="6" dy="0" in="SourceAlpha" result="shadowOffsetOuter1"></feOffset>
            <feGaussianBlur stdDeviation="6.5" in="shadowOffsetOuter1" result="shadowBlurOuter1"></feGaussianBlur>
            <feColorMatrix values="0 0 0 0 0   0 0 0 0 0   0 0 0 0 0  0 0 0 0.08 0" type="matrix" in="shadowBlurOuter1"></feColorMatrix>
        </filter>
    </defs>
    <g id="Page-1" stroke="none" stroke-width="1" fill="none" fill-rule="evenodd">
        <g id="ic-logo" transform="translate(-391.000000, -174.000000)">
            <g id="logo" transform="translate(392.000000, 176.000000)">
                <g id="backgound">
                    <use fill="black" fill-opacity="1" filter="url(#filter-3)" xlink:href="#path-2"></use>
                    <use fill="url(#linearGradient-1)" fill-rule="evenodd" xlink:href="#path-2"></use>
                </g>
                <g id="电视塔" transform="translate(199.000000, 88.000000)">
                    <g id="Combined-Shape">
                        <use fill="black" fill-opacity="1" filter="url(#filter-5)" xlink:href="#path-4"></use>
                        <use fill="#FFFFFF" fill-rule="evenodd" xlink:href="#path-4"></use>
                    </g>
                    <path d="M44.4274017,407.911596 L44.4274017,0.863660751 L51.9320856,100.643521 C51.9320856,100.643521 61.3041222,100.653472 71.3404466,103.309946 C81.3767711,105.96642 86.0280483,110.606535 86.0280483,112.585447 C86.0280483,114.56436 84.362495,115.223158 81.7319338,118.617825 C79.0249669,122.111091 78.2010465,125.246487 78.2010465,125.246487 C78.2010465,125.246487 89.9797473,126.946342 89.9797473,129.595172 C89.9797473,132.244002 78.7790939,133.287888 78.7790939,133.287888 L85.3490371,142.138443 C86.0098369,143.028625 85.7175747,144.097895 84.7068177,144.522288 L62.0824905,154.021703 L57.4754844,163.796955 C57.4754844,163.796955 59.3210009,235.036186 62.2819404,260.311777 C65.2428799,285.587368 82.1946529,381.087815 82.1946529,381.087815 L51.4040656,412.409373 C50.6286216,413.19819 49.3823427,413.180818 48.6296519,412.380386 L44.4274017,407.911596 Z" id="Path-8" fill="#F2F2F2"></path>
                </g>
            </g>
        </g>
    </g>
</svg>