<svg width="506" height="515" viewBox="0 0 506 515" xmlns="http://www.w3.org/2000/svg" xmlns:xlink="http://www.w3.org/1999/xlink">
  <title>
    logo
  </title>
  <defs>
    <linearGradient x1="48.8%" y1="0%" x2="50%" y2="100%" id="c">
      <stop stop-color="#F88B88" offset="0%"/>
      <stop stop-color="#EF5350" offset="100%"/>
    </linearGradient>
    <path d="M247.56.94c.78-.78 1.43-.53 1.47.6 0 0 0 86.52 81.4 167.24 81.4 80.72 167.46 81.15 167.46 81.15 1.1.04 1.34.7.56 1.5l-247.1 247.52c-.78.78-2.04.78-2.8 0L1.56 250.4c-.77-.77-.77-2.03 0-2.82L247.57.94z" id="b"/>
    <filter x="-1%" y="-1%" width="102.8%" height="102.8%" filterUnits="objectBoundingBox" id="a">
      <feOffset dx="2" dy="2" in="SourceAlpha" result="shadowOffsetOuter1"/>
      <feGaussianBlur stdDeviation="2" in="shadowOffsetOuter1" result="shadowBlurOuter1"/>
      <feColorMatrix values="0 0 0 0 0 0 0 0 0 0 0 0 0 0 0 0 0 0 0.04 0" in="shadowBlurOuter1"/>
    </filter>
    <path d="M27.65 153.28l-23.2-8.9c-1.05-.4-1.24-1.34-.45-2.1 0 0 4.86-4.38 7.4-9.1C3.9 132.25 0 131 0 129.6c0-1.44 4.3-2.76 12.5-3.7-1.7-5.5-8.5-11.4-8.5-11.4-.8-.76-.94-2.08-.3-2.97 0 0 4.23-9.72 34.53-10.94l6.12-93.1c.07-1.1.2-1.1.28 0l7.06 93.1c29.73 1.32 33.75 10.9 33.75 10.9.7.86.54 2.26-.22 3.06 0 0-5.9 5.8-7.42 11.26 8.14.94 12.18 2.28 12.18 3.77 0 1.43-3.7 2.72-11.2 3.65 2.24 4.66 6.46 8.93 6.46 8.93.74.8.52 1.8-.5 2.2l-22.44 9-4.84 10.32h.02s-2 45.85 5.5 102.95 19.17 114.4 19.17 114.4l-31.24 30.7c-.77.78-2.03.77-2.8-.04L8.04 370.2S20.2 312.1 27.1 266.68c6.9-45.46 6.06-102.94 6.06-102.94l-5.55-10.46z" id="e"/>
    <filter x="-18.3%" y="-5.5%" width="150%" height="111.1%" filterUnits="objectBoundingBox" id="d">
      <feOffset dx="6" in="SourceAlpha" result="shadowOffsetOuter1"/>
      <feGaussianBlur stdDeviation="6.5" in="shadowOffsetOuter1" result="shadowBlurOuter1"/>
      <feColorMatrix values="0 0 0 0 0 0 0 0 0 0 0 0 0 0 0 0 0 0 0.08 0" in="shadowBlurOuter1"/>
    </filter>
  </defs>
  <g fill="none" fill-rule="evenodd">
    <g transform="translate(1 2)">
      <use fill="#000" filter="url(#a)" xlink:href="#b"/>
      <use fill="url(#c)" xlink:href="#b"/>
    </g>
    <g transform="translate(200 90)">
      <use fill="#000" filter="url(#d)" xlink:href="#e"/>
      <use fill="#FFF" xlink:href="#e"/>
    </g>
    <path d="M244.43 497.9V90.87l7.5 99.78s9.37 0 19.4 2.67c10.05 2.67 14.7 7.3 14.7 9.3 0 1.96-1.67 2.62-4.3 6.02-2.7 3.5-3.53 6.63-3.53 6.63s11.78 1.7 11.78 4.35c0 2.64-11.2 3.7-11.2 3.7l6.57 8.84c.66.9.37 1.96-.64 2.38l-22.6 9.5-4.6 9.78s1.84 71.24 4.8 96.5c2.96 25.3 19.9 120.8 19.9 120.8l-30.8 31.3c-.75.8-2 .78-2.75-.02l-4.2-4.47z" fill="#F2F2F2"/>
  </g>
</svg>
